<svg width="267" height="267" viewBox="0 0 267 267" fill="none" xmlns="http://www.w3.org/2000/svg">
<path d="M133.176 266.335C206.727 266.335 266.351 206.714 266.351 133.167C266.351 59.621 206.727 0 133.176 0C59.6248 0 0 59.621 0 133.167C0 206.714 59.6248 266.335 133.176 266.335Z" fill="#2DD6A0"/>
<path fill-rule="evenodd" clip-rule="evenodd" d="M133.176 262.335C204.518 262.335 262.351 204.504 262.351 133.167C262.351 61.8304 204.518 4 133.176 4C61.8337 4 4 61.8304 4 133.167C4 204.504 61.8337 262.335 133.176 262.335ZM266.351 133.167C266.351 206.714 206.727 266.335 133.176 266.335C59.6248 266.335 0 206.714 0 133.167C0 59.621 59.6248 0 133.176 0C206.727 0 266.351 59.621 266.351 133.167Z" fill="black"/>
<path fill-rule="evenodd" clip-rule="evenodd" d="M133.175 24.727C73.2817 24.727 24.7285 73.2774 24.7285 133.167C24.7285 193.057 73.2817 241.607 133.175 241.607C193.069 241.607 241.622 193.057 241.622 133.167C241.622 73.2774 193.069 24.727 133.175 24.727ZM20.7285 133.167C20.7285 71.068 71.0728 20.727 133.175 20.727C195.278 20.727 245.622 71.068 245.622 133.167C245.622 195.266 195.278 245.607 133.175 245.607C71.0728 245.607 20.7285 195.266 20.7285 133.167Z" fill="black"/>
<path d="M107.776 182.981H117.536V83.7814H107.776V77.3813H141.536C144.843 77.3813 148.469 77.9147 152.416 78.9813C156.363 80.048 160.043 81.7547 163.456 84.1013C166.976 86.448 169.909 89.488 172.256 93.2214C174.603 96.9547 175.776 101.435 175.776 106.661C175.776 115.835 172.843 123.141 166.976 128.581C161.216 134.021 152.843 136.741 141.856 136.741H124.096V182.981H139.936V189.381H107.776V182.981ZM124.096 130.181H140.736C146.283 130.181 150.869 129.435 154.496 127.941C158.229 126.448 161.163 124.528 163.296 122.181C165.536 119.835 167.083 117.328 167.936 114.661C168.789 111.888 169.216 109.221 169.216 106.661C169.216 103.675 168.469 100.795 166.976 98.0213C165.589 95.248 163.616 92.7947 161.056 90.6613C158.496 88.528 155.456 86.8747 151.936 85.7014C148.523 84.4214 144.843 83.7814 140.896 83.7814H124.096V130.181Z" fill="black"/>
<path d="M107 94H183V100H107V94Z" fill="black"/>
<path d="M107 114H183V120H107V114Z" fill="black"/>
<path fill-rule="evenodd" clip-rule="evenodd" d="M133.175 35.3804C79.2337 35.3804 35.3823 79.2293 35.3823 133.167C35.3823 134.272 34.4869 135.167 33.3823 135.167C32.2778 135.167 31.3823 134.272 31.3823 133.167C31.3823 77.0199 77.0248 31.3804 133.175 31.3804C147.299 31.3804 160.705 34.2775 172.666 39.3517C173.683 39.783 174.158 40.9571 173.726 41.9739C173.295 42.9908 172.121 43.4654 171.104 43.034C159.627 38.1651 146.752 35.3804 133.175 35.3804Z" fill="black"/>
<path fill-rule="evenodd" clip-rule="evenodd" d="M57.9571 198.807C58.7722 198.062 60.0373 198.119 60.7827 198.934C71.9143 211.108 85.8356 220.162 101.518 225.739C111.599 229.214 122.029 230.954 133.175 230.954C134.279 230.954 135.175 231.849 135.175 232.954C135.175 234.058 134.279 234.954 133.175 234.954C121.594 234.954 110.72 233.143 100.205 229.518L100.187 229.511C83.9118 223.725 69.4255 214.314 57.8306 201.633C57.0853 200.818 57.1419 199.553 57.9571 198.807Z" fill="black"/>
<path fill-rule="evenodd" clip-rule="evenodd" d="M232.968 131.167C234.073 131.167 234.968 132.063 234.968 133.167C234.968 155.622 227.722 176.278 215.399 192.95L215.396 192.954C205.995 205.609 194.045 216.117 179.9 223.37C178.917 223.874 177.712 223.486 177.208 222.503C176.704 221.52 177.092 220.315 178.075 219.811C191.631 212.86 203.119 202.772 212.184 190.57C224.009 174.571 230.968 154.745 230.968 133.167C230.968 132.063 231.864 131.167 232.968 131.167Z" fill="black"/>
</svg>
